<svg width="330" height="331" viewBox="0 0 330 331" fill="none" xmlns="http://www.w3.org/2000/svg">
  <circle cx="166.066" cy="166.37" r="153.432" stroke="#40444A" stroke-width="21.0055" />
  <path
    d="M167.283 49.6221C241.009 49.6221 300.775 109.485 300.775 183.33C300.775 245.325 258.651 297.466 201.507 312.603C204.437 310.565 205.155 307.218 205.155 301.722C205.155 296.924 205.332 281.639 205.332 262.623C205.332 249.294 200.897 240.763 195.751 236.32C227.334 232.766 260.514 220.681 260.514 166.12C260.514 150.481 257.356 135.516 248.307 125.564C249.726 122.009 252.352 109.782 244.545 90.2328C244.504 90.2194 232.61 86.355 205.51 104.806C194.154 101.607 182.088 100.008 170.023 100.008C157.957 100.008 142.769 101.607 131.413 104.806C104.32 86.5372 95.5352 90.218 95.5003 90.2328C87.6934 109.782 94.0807 122.009 95.5003 125.564C86.4512 135.516 79.5312 150.658 79.5312 166.12C79.5312 220.503 109.892 229.543 141.26 233.77C136.196 244.337 136.31 246.095 135.068 255.337C126.906 259.069 106.501 265.111 93.7258 243.607C91.0643 239.342 83.0798 228.856 71.9015 229.034C60.0134 229.211 66.9333 232.795 71.9015 235.461C77.9342 238.838 85.0315 254.448 86.6285 258.536C89.4675 266.533 93.7258 280.406 134.367 272.657V312.952C134.367 312.952 33.7915 257.175 33.7915 183.33C33.7915 109.485 93.5578 49.6221 167.283 49.6221Z"
    fill="#AD460C" />
  <path
    d="M311.278 178.873C311.278 103.414 239.253 22.376 163.769 22.376C88.2858 22.376 19.0268 103.414 19.0268 178.873C20.1622 235.2 55.014 279.324 130.059 305.855V272.793C93.5445 279.512 84.0978 263.894 81.1912 255.722C79.5561 251.545 72.4713 238.651 66.2947 235.2C61.208 232.476 53.9414 225.757 66.1128 225.575C77.5577 225.394 85.7326 236.109 88.4577 240.467C101.538 262.441 122.429 256.267 130.786 252.453C132.058 243.01 135.873 236.653 140.051 233.021C107.715 229.389 73.9246 216.858 73.9246 161.287C73.9247 145.487 79.5562 132.411 88.8211 122.241C87.3676 118.609 82.2813 103.717 90.2745 83.741C90.2839 83.738 102.457 79.9347 130.241 98.6328C141.868 95.3639 154.221 93.7294 166.574 93.7294C178.927 93.7294 191.281 95.3639 202.907 98.6328C230.666 79.7704 242.843 83.7307 242.874 83.741C250.867 103.717 245.781 118.609 244.327 122.241C253.592 132.411 259.224 145.306 259.224 161.287C259.224 217.04 225.253 229.389 192.916 233.021C198.184 237.561 202.726 246.279 202.726 259.899C202.726 279.331 202.544 294.949 202.544 299.852C202.544 305.469 201.809 308.889 198.809 310.972C257.316 295.504 311.278 242.223 311.278 178.873Z"
    fill="url(#paint0_linear_5443_1218)" />
  <path
    d="M170.946 30.1387C248.976 30.1387 311.125 93.861 311.125 172.119C311.125 250.293 249.06 312.039 170.946 312.039C92.7974 312.039 29.5296 249.847 29.5295 171.707C29.5295 93.5165 92.8481 30.1387 170.946 30.1387Z"
    stroke="#E16117" stroke-width="9.13284" />
  <circle cx="163.935" cy="163.935" r="148.713" stroke="#D9D9D9" stroke-width="30.4428" />
  <defs>
    <linearGradient id="paint0_linear_5443_1218" x1="260.584" y1="283.596" x2="146.749" y2="21.3204"
      gradientUnits="userSpaceOnUse">
      <stop stop-color="#E37633" />
      <stop offset="1" stop-color="#FFC06B" />
    </linearGradient>
  </defs>
</svg>
